<?xml version="1.0" encoding="utf-8"?>
<svg xmlns="http://www.w3.org/2000/svg"
     style="margin: auto; background: none; display: block; shape-rendering: auto; animation-play-state: running; animation-delay: 0s;"
     width="286" height="250" preserveAspectRatio="xMidYMid">
  <style type="text/css" style="animation-play-state: running; animation-delay: 0s;">
    text {
      text-anchor: middle;
      font-size: 48px;
      opacity: 0;
    }
  </style>
  <g style="transform-origin: 143px 125px; transform: scale(0.6); animation-play-state: running; animation-delay: 0s;">
    <g transform="translate(143,125)" style="animation-play-state: running; animation-delay: 0s;">
      <g transform="translate(0,0)" style="animation-play-state: running; animation-delay: 0s;">
        <g class="path"
           style="transform: rotate(0deg); transform-origin: -167.56px 1.70516px; animation: 1s linear -0.6s infinite normal forwards running spin-10d4b2cb-d030-40a1-b95a-a8726af395e9;">
          <path
            d="M6.56-24.80L6.56-24.80L6.56-24.80Q6.56-36.24 18.52-42.48L18.52-42.48L18.52-42.48Q30.48-48.72 52.32-48.72L52.32-48.72L52.32-48.72Q64.72-48.72 70.48-44.96L70.48-44.96L70.48-44.96Q76.24-41.20 76.24-34.72L76.24-34.72L76.24-34.72Q76.24-29.28 72.52-24.96L72.52-24.96L72.52-24.96Q68.80-20.64 62.08-18.56L62.08-18.56L62.08-18.56Q76.80-16.88 76.80-8.24L76.80-8.24L76.80-8.24Q76.80-3.76 73.64-0.76L73.64-0.76L73.64-0.76Q70.48 2.24 65.28 3.52L65.28 3.52L65.28 3.52Q56.48 5.68 47.20 5.68L47.20 5.68L47.20 4.08L47.20 4.08Q49.04 4.24 50.72 4.24L50.72 4.24L50.72 4.24Q58.72 4.24 62.80 1.44L62.80 1.44L62.80 1.44Q67.76-2 67.76-7.60L67.76-7.60L67.76-7.60Q67.76-10.80 65.80-13.32L65.80-13.32L65.80-13.32Q63.84-15.84 61.92-16.80L61.92-16.80L59.92-17.76L59.92-17.76Q57.36-17.20 54.16-17.20L54.16-17.20L54.16-18.80L54.16-18.80Q61.84-18.80 68.16-23.20L68.16-23.20L68.16-23.20Q74.48-27.60 74.48-34.72L74.48-34.72L74.48-34.72Q74.48-40.64 68.92-43.88L68.92-43.88L68.92-43.88Q63.36-47.12 53.04-47.20L53.04-47.20L53.04-47.20Q48.64-17.44 46.32-6.24L46.32-6.24L46.32-6.24Q44.72 2.40 38.32 7.32L38.32 7.32L38.32 7.32Q31.92 12.24 24.64 12.24L24.64 12.24L24.64 10.72L24.64 10.72Q27.76 10.48 29.24 10.04L29.24 10.04L29.24 10.04Q30.72 9.60 31.76 8.20L31.76 8.20L31.76 8.20Q32.80 6.80 33.28 4.88L33.28 4.88L33.28 4.88Q34.16 0.96 34.64-2.56L34.64-2.56L42.32-46.80L42.32-46.80Q25.92-45.44 17-39.72L17-39.72L17-39.72Q8.08-34 8.08-24.80L8.08-24.80L8.08-24.80Q8.08-20.64 10.96-17.76L10.96-17.76L10.96-17.76Q12.96-15.84 16.24-14.84L16.24-14.84L16.24-14.84Q19.52-13.84 21.64-13.72L21.64-13.72L21.64-13.72Q23.76-13.60 23.92-13.76L23.92-13.76L23.92-12.08L23.92-12.08Q14.48-12.08 9.92-16.56L9.92-16.56L9.92-16.56Q6.56-19.68 6.56-24.80"
            fill="#ec1c24" stroke="none" stroke-width="none" transform="translate(-209.24002075195312,19.9451620760831)"
            style="fill: rgb(236, 28, 36); animation-play-state: running; animation-delay: 0s;"></path>
        </g>
        <g class="path"
           style="transform: rotate(0deg); transform-origin: -118px 4.74516px; animation: 1s linear -0.54s infinite normal forwards running spin-10d4b2cb-d030-40a1-b95a-a8726af395e9;">
          <path
            d="M97.92-2.16L97.92-2.16Q95.52 0.72 91.92 0.72L91.92 0.72L91.92 0.72Q88.32 0.72 86.28-1.12L86.28-1.12L86.28-1.12Q84.24-2.96 84.24-5.92L84.24-5.92L84.24-5.92Q84.24-6.96 85.52-14.64L85.52-14.64L88.16-28.96L84.80-28.96L84.96-30.40L88.40-30.40L88.40-30.40Q94.32-30.40 97.12-30.88L97.12-30.88L98.24-31.12L92.72-0.88L92.72-0.88Q95.12-1.12 96.72-3.12L96.72-3.12L97.92-2.16"
            fill="#ec1c24" stroke="none" stroke-width="none" transform="translate(-209.24002075195312,19.9451620760831)"
            style="fill: rgb(253, 189, 16); animation-play-state: running; animation-delay: 0s;"></path>
        </g>
        <g class="path"
           style="transform: rotate(0deg); transform-origin: -114.24px -22.9748px; animation: 1s linear -0.48s infinite normal forwards running spin-10d4b2cb-d030-40a1-b95a-a8726af395e9;">
          <path
            d="M90.88-38.80L90.88-38.80L90.88-38.80Q89.20-40.48 89.20-42.88L89.20-42.88L89.20-42.88Q89.20-45.28 90.88-47L90.88-47L90.88-47Q92.56-48.72 94.96-48.72L94.96-48.72L94.96-48.72Q97.36-48.72 99.08-47L99.08-47L99.08-47Q100.80-45.28 100.80-42.88L100.80-42.88L100.80-42.88Q100.80-40.48 99.08-38.80L99.08-38.80L99.08-38.80Q97.36-37.12 94.96-37.12L94.96-37.12L94.96-37.12Q92.56-37.12 90.88-38.80"
            fill="#ec1c24" stroke="none" stroke-width="none" transform="translate(-209.24002075195312,19.9451620760831)"
            style="fill: rgb(0, 102, 178); animation-play-state: running; animation-delay: 0s;"></path>
        </g>
        <g class="path"
           style="transform: rotate(0deg); transform-origin: -90.6px 11.7452px; animation: 1s linear -0.42s infinite normal forwards running spin-10d4b2cb-d030-40a1-b95a-a8726af395e9;">
          <path
            d="M128.80 8.72L128.80 8.72L128.80 8.72Q131.68 8.72 133.76 6.48L133.76 6.48L134.88 7.44L134.88 7.44Q132.96 10.16 128.80 10.16L128.80 10.16L128.80 10.16Q127.04 10.16 125.20 9.76L125.20 9.76L125.20 9.76Q119.76 14.72 111.28 14.72L111.28 14.72L111.28 14.72Q106.24 14.72 103.48 13L103.48 13L103.48 13Q100.72 11.28 100.72 8.52L100.72 8.52L100.72 8.52Q100.72 5.76 102.44 4.12L102.44 4.12L102.44 4.12Q104.16 2.48 108.56 2.48L108.56 2.48L108.56 2.48Q112.96 2.48 120.16 6.08L120.16 6.08L122.64-7.20L122.64-7.20Q119.04-0.56 113.36-0.56L113.36-0.56L113.36-0.56Q102.48-0.56 102.48-11.28L102.48-11.28L102.48-11.28Q102.48-20.24 107-25.68L107-25.68L107-25.68Q111.52-31.12 118.56-31.12L118.56-31.12L118.56-31.12Q122.64-31.12 124.88-28.64L124.88-28.64L124.88-28.64Q125.52-27.92 126.16-26.48L126.16-26.48L126.88-30.40L126.88-30.40Q132.80-30.40 135.52-30.88L135.52-30.88L136.56-31.12L131.28-1.60L131.28-1.60Q130.08 4.64 126.48 8.48L126.48 8.48L126.48 8.48Q127.52 8.72 128.80 8.72zM111.52-8.80L111.52-8.80Q111.52-5.12 112.24-3.88L112.24-3.88L112.24-3.88Q112.96-2.64 114.96-2.64L114.96-2.64L114.96-2.64Q116.96-2.64 119.04-4.80L119.04-4.80L119.04-4.80Q121.12-6.96 122.04-8.84L122.04-8.84L122.04-8.84Q122.96-10.72 123.60-12.48L123.60-12.48L125.28-21.68L125.28-22.24L125.28-22.24Q125.28-29.60 118.56-29.60L118.56-29.60L118.56-29.60Q116-29.60 113.76-22.64L113.76-22.64L113.76-22.64Q111.52-15.68 111.52-8.80L111.52-8.80zM110.96 13.12L110.96 13.12L110.96 13.12Q117.36 13.12 119.60 7.60L119.60 7.60L118.48 7.04L118.48 7.04Q117.52 6.56 117.32 6.44L117.32 6.44L117.32 6.44Q117.12 6.32 116.24 5.92L116.24 5.92L116.24 5.92Q115.36 5.52 114.96 5.40L114.96 5.40L114.96 5.40Q114.56 5.28 113.72 4.96L113.72 4.96L113.72 4.96Q112.88 4.64 112.32 4.52L112.32 4.52L112.32 4.52Q111.76 4.40 111.04 4.24L111.04 4.24L111.04 4.24Q109.84 4 107.52 4L107.52 4L107.52 4Q105.20 4 103.80 5.12L103.80 5.12L103.80 5.12Q102.40 6.24 102.40 8.40L102.40 8.40L102.40 8.40Q102.40 10.56 104.72 11.84L104.72 11.84L104.72 11.84Q107.04 13.12 110.96 13.12"
            fill="#ec1c24" stroke="none" stroke-width="none" transform="translate(-209.24002075195312,19.9451620760831)"
            style="fill: rgb(236, 28, 36); animation-play-state: running; animation-delay: 0s;"></path>
        </g>
        <g class="path"
           style="transform: rotate(0deg); transform-origin: -15.56px 1.70516px; animation: 1s linear -0.36s infinite normal forwards running spin-10d4b2cb-d030-40a1-b95a-a8726af395e9;">
          <path
            d="M158.56-24.80L158.56-24.80L158.56-24.80Q158.56-36.24 170.52-42.48L170.52-42.48L170.52-42.48Q182.48-48.72 204.32-48.72L204.32-48.72L204.32-48.72Q216.72-48.72 222.48-44.96L222.48-44.96L222.48-44.96Q228.24-41.20 228.24-34.72L228.24-34.72L228.24-34.72Q228.24-29.28 224.52-24.96L224.52-24.96L224.52-24.96Q220.80-20.64 214.08-18.56L214.08-18.56L214.08-18.56Q228.80-16.88 228.80-8.24L228.80-8.24L228.80-8.24Q228.80-3.76 225.64-0.76L225.64-0.76L225.64-0.76Q222.48 2.24 217.28 3.52L217.28 3.52L217.28 3.52Q208.48 5.68 199.20 5.68L199.20 5.68L199.20 4.08L199.20 4.08Q201.04 4.24 202.72 4.24L202.72 4.24L202.72 4.24Q210.72 4.24 214.80 1.44L214.80 1.44L214.80 1.44Q219.76-2 219.76-7.60L219.76-7.60L219.76-7.60Q219.76-10.80 217.80-13.32L217.80-13.32L217.80-13.32Q215.84-15.84 213.92-16.80L213.92-16.80L211.92-17.76L211.92-17.76Q209.36-17.20 206.16-17.20L206.16-17.20L206.16-18.80L206.16-18.80Q213.84-18.80 220.16-23.20L220.16-23.20L220.16-23.20Q226.48-27.60 226.48-34.72L226.48-34.72L226.48-34.72Q226.48-40.64 220.92-43.88L220.92-43.88L220.92-43.88Q215.36-47.12 205.04-47.20L205.04-47.20L205.04-47.20Q200.64-17.44 198.32-6.24L198.32-6.24L198.32-6.24Q196.72 2.40 190.32 7.32L190.32 7.32L190.32 7.32Q183.92 12.24 176.64 12.24L176.64 12.24L176.64 10.72L176.64 10.72Q179.76 10.48 181.24 10.04L181.24 10.04L181.24 10.04Q182.72 9.60 183.76 8.20L183.76 8.20L183.76 8.20Q184.80 6.80 185.28 4.88L185.28 4.88L185.28 4.88Q186.16 0.96 186.64-2.56L186.64-2.56L194.32-46.80L194.32-46.80Q177.92-45.44 169-39.72L169-39.72L169-39.72Q160.08-34 160.08-24.80L160.08-24.80L160.08-24.80Q160.08-20.64 162.96-17.76L162.96-17.76L162.96-17.76Q164.96-15.84 168.24-14.84L168.24-14.84L168.24-14.84Q171.52-13.84 173.64-13.72L173.64-13.72L173.64-13.72Q175.76-13.60 175.92-13.76L175.92-13.76L175.92-12.08L175.92-12.08Q166.48-12.08 161.92-16.56L161.92-16.56L161.92-16.56Q158.56-19.68 158.56-24.80"
            fill="#ec1c24" stroke="none" stroke-width="none" transform="translate(-209.24002075195312,19.9451620760831)"
            style="fill: rgb(253, 189, 16); animation-play-state: running; animation-delay: 0s;"></path>
        </g>
        <g class="path"
           style="transform: rotate(0deg); transform-origin: 43.16px 4.74516px; animation: 1s linear -0.3s infinite normal forwards running spin-10d4b2cb-d030-40a1-b95a-a8726af395e9;">
          <path
            d="M263.36 0.72L263.36 0.72L263.36 0.72Q256.32 0.72 255.68-5.44L255.68-5.44L255.68-5.44Q252.16 0.72 246.80 0.72L246.80 0.72L246.80 0.72Q241.44 0.72 238.28-2.52L238.28-2.52L238.28-2.52Q235.12-5.76 235.12-11.60L235.12-11.60L235.12-11.60Q235.12-20.72 239.60-25.92L239.60-25.92L239.60-25.92Q244.08-31.12 251.20-31.12L251.20-31.12L251.20-31.12Q257.04-31.12 258.96-25.60L258.96-25.60L258.96-25.60Q259.36-28 259.84-30.40L259.84-30.40L259.84-30.40Q265.76-30.40 268.64-30.88L268.64-30.88L269.68-31.12L264.16-0.88L264.16-0.88Q266.56-1.12 268.16-3.12L268.16-3.12L269.36-2.16L269.36-2.16Q266.96 0.72 263.36 0.72zM244.16-7.52L244.16-7.52Q244.16-3.92 245.08-2.52L245.08-2.52L245.08-2.52Q246-1.12 247.92-1.12L247.92-1.12L247.92-1.12Q249.84-1.12 251.84-3.20L251.84-3.20L251.84-3.20Q254.48-5.92 256.08-10.08L256.08-10.08L256.08-10.08Q256.32-11.12 257-15.08L257-15.08L257-15.08Q257.68-19.04 258.16-21.60L258.16-21.60L258.16-21.60Q257.92-24.64 256.48-26.88L256.48-26.88L256.48-26.88Q255.04-29.12 252.88-29.12L252.88-29.12L252.88-29.12Q248.96-29.12 246.56-22.12L246.56-22.12L246.56-22.12Q244.16-15.12 244.16-7.52L244.16-7.52"
            fill="#ec1c24" stroke="none" stroke-width="none" transform="translate(-209.24002075195312,19.9451620760831)"
            style="fill: rgb(0, 102, 178); animation-play-state: running; animation-delay: 0s;"></path>
        </g>
        <g class="path"
           style="transform: rotate(0deg); transform-origin: 76.16px -5.61484px; animation: 1s linear -0.24s infinite normal forwards running spin-10d4b2cb-d030-40a1-b95a-a8726af395e9;">
          <path
            d="M288.48-2.88L288.48-2.88L288.48-2.88Q287.44-1.52 285.64-0.40L285.64-0.40L285.64-0.40Q283.84 0.72 280.96 0.72L280.96 0.72L280.96 0.72Q278.08 0.72 276.08-1.12L276.08-1.12L276.08-1.12Q274.08-2.96 274.08-6.32L274.08-6.32L274.08-6.32Q274.08-6.96 274.24-8.40L274.24-8.40L279.44-37.20L279.44-37.20Q280.88-45.12 283.40-48.48L283.40-48.48L283.40-48.48Q285.92-51.84 290.08-51.84L290.08-51.84L290.08-51.84Q292.96-51.84 294.84-49.68L294.84-49.68L294.84-49.68Q296.72-47.52 296.72-43.12L296.72-43.12L296.72-43.12Q296.72-38.72 293.32-30.56L293.32-30.56L293.32-30.56Q289.92-22.40 289.92-18.64L289.92-18.64L288.48-18.64L288.48-18.64Q288.48-22.88 291.84-30.76L291.84-30.76L291.84-30.76Q295.20-38.64 295.20-43.36L295.20-43.36L295.20-43.36Q295.20-46.24 293.88-48.32L293.88-48.32L293.88-48.32Q292.56-50.40 290.64-50.40L290.64-50.40L290.64-50.40Q290.56-48.32 287.88-31.72L287.88-31.72L287.88-31.72Q285.20-15.12 282.56-0.88L282.56-0.88L282.56-0.88Q284.80-0.88 286.72-3.20L286.72-3.20L286.72-3.20Q288.64-5.52 289.44-7.84L289.44-7.84L290.32-10.24L291.76-9.60L291.76-9.60Q291.52-8.48 290.52-6.36L290.52-6.36L290.52-6.36Q289.52-4.24 288.48-2.88"
            fill="#ec1c24" stroke="none" stroke-width="none" transform="translate(-209.24002075195312,19.9451620760831)"
            style="fill: rgb(236, 28, 36); animation-play-state: running; animation-delay: 0s;"></path>
        </g>
        <g class="path"
           style="transform: rotate(0deg); transform-origin: 98.4px -5.61484px; animation: 1s linear -0.18s infinite normal forwards running spin-10d4b2cb-d030-40a1-b95a-a8726af395e9;">
          <path
            d="M310.72-2.88L310.72-2.88L310.72-2.88Q309.68-1.52 307.88-0.40L307.88-0.40L307.88-0.40Q306.08 0.72 303.20 0.72L303.20 0.72L303.20 0.72Q300.32 0.72 298.32-1.12L298.32-1.12L298.32-1.12Q296.32-2.96 296.32-6.32L296.32-6.32L296.32-6.32Q296.32-6.96 296.48-8.40L296.48-8.40L301.68-37.20L301.68-37.20Q303.12-45.12 305.64-48.48L305.64-48.48L305.64-48.48Q308.16-51.84 312.32-51.84L312.32-51.84L312.32-51.84Q315.20-51.84 317.08-49.68L317.08-49.68L317.08-49.68Q318.96-47.52 318.96-43.12L318.96-43.12L318.96-43.12Q318.96-38.72 315.56-30.56L315.56-30.56L315.56-30.56Q312.16-22.40 312.16-18.64L312.16-18.64L310.72-18.64L310.72-18.64Q310.72-22.88 314.08-30.76L314.08-30.76L314.08-30.76Q317.44-38.64 317.44-43.36L317.44-43.36L317.44-43.36Q317.44-46.24 316.12-48.32L316.12-48.32L316.12-48.32Q314.80-50.40 312.88-50.40L312.88-50.40L312.88-50.40Q312.80-48.32 310.12-31.72L310.12-31.72L310.12-31.72Q307.44-15.12 304.80-0.88L304.80-0.88L304.80-0.88Q307.04-0.88 308.96-3.20L308.96-3.20L308.96-3.20Q310.88-5.52 311.68-7.84L311.68-7.84L312.56-10.24L314-9.60L314-9.60Q313.76-8.48 312.76-6.36L312.76-6.36L312.76-6.36Q311.76-4.24 310.72-2.88"
            fill="#ec1c24" stroke="none" stroke-width="none" transform="translate(-209.24002075195312,19.9451620760831)"
            style="fill: rgb(253, 189, 16); animation-play-state: running; animation-delay: 0s;"></path>
        </g>
        <g class="path"
           style="transform: rotate(0deg); transform-origin: 124.76px 4.74516px; animation: 1s linear -0.12s infinite normal forwards running spin-10d4b2cb-d030-40a1-b95a-a8726af395e9;">
          <path
            d="M330.88 0.72L330.88 0.72Q324.72 0.72 321.52-2.36L321.52-2.36L321.52-2.36Q318.32-5.44 318.32-10.12L318.32-10.12L318.32-10.12Q318.32-14.80 319.16-18.12L319.16-18.12L319.16-18.12Q320-21.44 321.92-24.52L321.92-24.52L321.92-24.52Q323.84-27.60 327.72-29.36L327.72-29.36L327.72-29.36Q331.60-31.12 337.40-31.12L337.40-31.12L337.40-31.12Q343.20-31.12 346.44-28.04L346.44-28.04L346.44-28.04Q349.68-24.96 349.68-19.60L349.68-19.60L349.68-19.60Q349.68-10.48 344.84-4.88L344.84-4.88L344.84-4.88Q340 0.72 330.88 0.72L330.88 0.72zM327.36-7.52L327.36-7.52L327.36-7.52Q327.36-1.12 331.08-1.12L331.08-1.12L331.08-1.12Q334.80-1.12 337.72-7.56L337.72-7.56L337.72-7.56Q340.64-14 340.64-22.88L340.64-22.88L340.64-22.88Q340.64-29.60 337-29.60L337-29.60L337-29.60Q333.36-29.60 330.36-23.48L330.36-23.48L330.36-23.48Q327.36-17.36 327.36-7.52"
            fill="#ec1c24" stroke="none" stroke-width="none" transform="translate(-209.24002075195312,19.9451620760831)"
            style="fill: rgb(0, 102, 178); animation-play-state: running; animation-delay: 0s;"></path>
        </g>
        <g class="path"
           style="transform: rotate(0deg); transform-origin: 160.04px 4.74516px; animation: 1s linear -0.06s infinite normal forwards running spin-10d4b2cb-d030-40a1-b95a-a8726af395e9;">
          <path
            d="M366.16 0.72L366.16 0.72Q360 0.72 356.80-2.36L356.80-2.36L356.80-2.36Q353.60-5.44 353.60-10.12L353.60-10.12L353.60-10.12Q353.60-14.80 354.44-18.12L354.44-18.12L354.44-18.12Q355.28-21.44 357.20-24.52L357.20-24.52L357.20-24.52Q359.12-27.60 363-29.36L363-29.36L363-29.36Q366.88-31.12 372.68-31.12L372.68-31.12L372.68-31.12Q378.48-31.12 381.72-28.04L381.72-28.04L381.72-28.04Q384.96-24.96 384.96-19.60L384.96-19.60L384.96-19.60Q384.96-10.48 380.12-4.88L380.12-4.88L380.12-4.88Q375.28 0.72 366.16 0.72L366.16 0.72zM362.64-7.52L362.64-7.52L362.64-7.52Q362.64-1.12 366.36-1.12L366.36-1.12L366.36-1.12Q370.08-1.12 373-7.56L373-7.56L373-7.56Q375.92-14 375.92-22.88L375.92-22.88L375.92-22.88Q375.92-29.60 372.28-29.60L372.28-29.60L372.28-29.60Q368.64-29.60 365.64-23.48L365.64-23.48L365.64-23.48Q362.64-17.36 362.64-7.52"
            fill="#ec1c24" stroke="none" stroke-width="none" transform="translate(-209.24002075195312,19.9451620760831)"
            style="fill: rgb(236, 28, 36); animation-play-state: running; animation-delay: 0s;"></path>
        </g>
        <g class="path"
           style="transform: rotate(0deg); transform-origin: 197.84px 4.74516px; animation: 1s linear 0s infinite normal forwards running spin-10d4b2cb-d030-40a1-b95a-a8726af395e9;">
          <path
            d="M419.84-0.88L419.84-0.88L419.84-0.88Q421.76-0.88 423.84-3.12L423.84-3.12L425.04-2.16L425.04-2.16Q424.48-1.04 422.56-0.16L422.56-0.16L422.56-0.16Q420.64 0.72 418.32 0.72L418.32 0.72L418.32 0.72Q411.04 0.72 411.04-5.84L411.04-5.84L411.04-5.84Q411.04-8.64 412.48-15.84L412.48-15.84L412.48-15.84Q413.92-23.04 413.92-25.28L413.92-25.28L413.92-25.28Q413.92-28.72 410.64-28.72L410.64-28.72L410.64-28.72Q408.00-28.72 405.56-25.28L405.56-25.28L405.56-25.28Q403.12-21.84 401.52-15.84L401.52-15.84L398.80-0.88L398.80-0.88Q401.28-1.12 402.88-3.12L402.88-3.12L404.08-2.16L404.08-2.16Q401.68 0.72 398.08 0.72L398.08 0.72L398.08 0.72Q394.48 0.72 392.44-1.12L392.44-1.12L392.44-1.12Q390.40-2.96 390.40-5.92L390.40-5.92L390.40-5.92Q390.40-7.04 391.68-14.72L391.68-14.72L394.32-29.52L394.32-29.52Q391.92-29.28 390.32-27.28L390.32-27.28L389.12-28.24L389.12-28.24Q391.52-31.12 395.16-31.12L395.16-31.12L395.16-31.12Q398.80-31.12 400.80-29.28L400.80-29.28L400.80-29.28Q402.80-27.44 402.80-24.08L402.80-24.08L402.80-23.60L402.80-23.60Q406.08-31.12 413.04-31.12L413.04-31.12L413.04-31.12Q417.76-31.12 420.40-28.44L420.40-28.44L420.40-28.44Q423.04-25.76 423.04-21.04L423.04-21.04L423.04-21.04Q423.04-18.56 421.52-11.48L421.52-11.48L421.52-11.48Q420-4.40 419.84-0.88"
            fill="#ec1c24" stroke="none" stroke-width="none" transform="translate(-209.24002075195312,19.9451620760831)"
            style="fill: rgb(253, 189, 16); animation-play-state: running; animation-delay: 0s;"></path>
        </g>
      </g>
    </g>
  </g>
  <style id="spin-10d4b2cb-d030-40a1-b95a-a8726af395e9"
         data-anikit="">@keyframes spin-10d4b2cb-d030-40a1-b95a-a8726af395e9 {
                          0% {
                            animation-timing-function: cubic-bezier(0.5856, 0.0703, 0.4143, 0.9297);
                            transform: rotate(0deg);
                          }
                          100% {
                            transform: rotate(360deg);
                          }
                        }</style>
</svg>
